<svg xmlns="http://www.w3.org/2000/svg" width="1920" height="1593" fill="none" viewBox="0 0 1920 1593">
  <path stroke="url(#a)" stroke-miterlimit="10" stroke-width="1.113" d="M-549.475 1142.4c32.661-64.92 99.992-459.641 1031.298-832.008C1413.13-61.974 1577.49-313.656 1530.33-616.786"/>
  <path stroke="url(#b)" stroke-miterlimit="10" stroke-width="1.113" d="M-554.537 1133.16C-523.441 1071.31-442.31 685.717 484 320.981c926.31-364.736 1077.62-651.46 1032.77-940.271"/>
  <path stroke="url(#c)" stroke-miterlimit="10" stroke-width="1.113" d="M-559.54 1123.9c29.536-58.76 124.453-435.072 1046.116-791.924C1408.24-24.876 1546.53-346.552 1503.91-620.925"/>
  <path stroke="url(#d)" stroke-miterlimit="10" stroke-width="1.113" d="M-564.549 1114.62c27.987-55.67 136.678-422.673 1053.697-771.658C1406.17-6.023 1531.44-362.634 1491.06-622.56"/>
  <path stroke="url(#e)" stroke-miterlimit="10" stroke-width="1.113" d="M-569.562 1105.35c26.428-52.58 148.904-410.303 1061.269-751.414C1404.07 12.825 1516.33-378.728 1478.19-624.216"/>
  <path stroke="url(#f)" stroke-miterlimit="10" stroke-width="1.113" d="M-574.575 1096.09c24.878-49.48 161.139-397.915 1068.838-731.143C1401.96 31.719 1501.22-394.784 1465.32-625.825"/>
  <path stroke="url(#g)" stroke-miterlimit="10" stroke-width="1.113" d="M-579.587 1086.81c23.319-46.38 173.373-385.526 1076.419-710.88C1399.88 50.576 1486.12-410.87 1452.46-627.473"/>
  <path stroke="url(#h)" stroke-miterlimit="10" stroke-width="1.113" d="M-584.598 1077.54c21.77-43.3 185.6-373.154 1083.991-690.633C1397.78 69.427 1471.01-426.96 1439.6-629.116"/>
  <path stroke="url(#i)" stroke-miterlimit="10" stroke-width="1.113" d="M-589.61 1068.26c20.21-40.2 197.824-360.758 1091.571-670.371C1395.71 88.276 1455.9-443.037 1426.75-630.771"/>
  <path stroke="url(#j)" stroke-miterlimit="10" stroke-width="1.113" d="M-594.613 1059c18.661-37.12 210.051-348.386 1099.14-650.107C1393.62 107.172 1440.8-459.102 1413.9-632.388"/>
  <path stroke="url(#k)" stroke-miterlimit="10" stroke-width="1.113" d="M-599.625 1049.72c17.102-34.01 222.286-335.996 1106.713-629.852C1391.52 126.012 1425.7-475.195 1401.03-634.043"/>
  <path stroke="url(#l)" stroke-miterlimit="10" stroke-width="1.113" d="M-604.646 1040.46c15.543-30.93 234.502-323.62 1114.293-609.6C1389.44 144.88 1410.59-491.271 1388.16-635.672"/>
  <path stroke="url(#m)" stroke-miterlimit="10" stroke-width="1.113" d="M-609.65 1031.19c13.994-27.83 246.737-311.231 1121.873-589.336C1387.36 163.748 1395.5-507.345 1375.31-637.308"/>
  <path stroke="url(#n)" stroke-miterlimit="10" stroke-width="1.113" d="M-614.663 1021.91c12.435-24.734 258.964-298.852 1129.435-569.075C1385.24 182.612 1380.39-523.421 1362.44-638.947"/>
  <path stroke="url(#o)" stroke-miterlimit="10" stroke-width="1.113" d="M-619.673 1012.64c10.885-21.65 271.198-286.471 1137.015-548.819C1383.16 201.472 1365.28-539.496 1349.58-640.591"/>
  <path stroke="url(#p)" stroke-miterlimit="10" stroke-width="1.113" d="M-624.678 1003.37c9.326-18.551 283.415-274.084 1144.595-528.557C1381.1 220.34 1350.19-555.571 1336.73-642.219"/>
  <path stroke="url(#q)" stroke-miterlimit="10" stroke-width="1.113" d="M-629.688 994.098c7.777-15.465 295.649-261.701 1152.175-508.299C1379.01 239.201 1335.07-571.655 1323.86-643.855"/>
  <path stroke="url(#r)" stroke-miterlimit="10" stroke-width="1.113" d="M-634.709 984.833c6.217-12.369 307.884-249.316 1159.737-488.042C1376.88 258.066 1319.97-587.737 1311-645.499"/>
  <path stroke="url(#s)" stroke-miterlimit="10" stroke-width="1.113" d="M-639.72 975.557c4.668-9.281 320.1-236.933 1167.317-467.782C1374.81 276.926 1304.87-603.813 1298.14-647.128"/>
  <path stroke="url(#t)" stroke-miterlimit="10" stroke-width="1.113" d="M-644.725 966.29c3.108-6.184 332.334-224.547 1174.896-447.521C1372.73 295.794 1289.77-619.897 1285.27-648.774"/>
  <path stroke="url(#u)" stroke-miterlimit="10" stroke-width="1.113" d="M-649.734 957.018c1.56-3.097 344.562-212.172 1182.469-427.272C1370.64 314.646 1274.66-635.97 1272.42-650.408"/>
  <path stroke="#fff" stroke-miterlimit="10" stroke-width="1.113" d="M-654.748 947.741s356.796-199.786 1190.039-407.004C1368.53 333.519 1259.55-652.047 1259.55-652.047"/>
  <path stroke="#AE8E88" stroke-miterlimit="10" stroke-width="1.113" d="M-639.393 960.568c.222-2.189 345.147-231.982 1165.582-433.35C1346.62 325.85 1269.72-603.55 1282.82-620.864"/>
  <path stroke="#fff" stroke-miterlimit="10" stroke-width="1.113" d="M-624.031 973.407c.444-4.378 333.518-264.175 1141.133-459.686C1324.72 318.21 1279.91-555.058 1306.08-589.678"/>
  <path stroke="#AE8E88" stroke-miterlimit="10" stroke-width="1.113" d="M-608.674 986.236c.666-6.568 321.887-296.368 1116.665-486.024C1302.77 310.557 1290.07-506.578 1329.35-558.493"/>
  <path stroke="#fff" stroke-miterlimit="10" stroke-width="1.113" d="M-593.322 999.062c.877-8.75 310.248-328.572 1092.215-512.36C1280.86 302.914 1300.23-458.075 1352.61-527.303"/>
  <path stroke="#AE8E88" stroke-miterlimit="10" stroke-width="1.113" d="M-577.967 1011.89c1.099-10.94 298.618-360.763 1067.759-538.703 769.138-177.94 820.598-882.771 886.078-969.313"/>
  <path stroke="#fff" stroke-miterlimit="10" stroke-width="1.113" d="M-562.601 1024.71c1.321-13.13 286.97-392.958 1043.299-565.031 756.332-172.073 839.882-820.773 918.432-924.621"/>
  <path stroke="#AE8E88" stroke-miterlimit="10" stroke-width="1.113" d="M-547.249 1037.54c1.543-15.32 275.34-425.156 1018.85-591.371C1215.11 279.953 1330.74-312.608 1422.4-433.76"/>
  <path stroke="#fff" stroke-miterlimit="10" stroke-width="1.113" d="M-531.892 1050.37c1.764-17.51 263.701-457.36 994.393-617.718 730.689-160.358 878.409-696.77 983.149-835.228"/>
  <path stroke="#AE8E88" stroke-miterlimit="10" stroke-width="1.113" d="M-516.532 1063.21c1.986-19.7 252.071-489.556 969.936-644.066C1171.27 264.634 1351.08-215.62 1468.91-371.392"/>
  <path stroke="#fff" stroke-miterlimit="10" stroke-width="1.113" d="M-501.176 1076.03c2.208-21.88 240.44-521.742 945.476-670.386 705.04-148.645 916.96-572.766 1047.87-745.844"/>
  <path stroke="#AE8E88" stroke-miterlimit="10" stroke-width="1.113" d="M-485.821 1088.86c2.43-24.07 228.803-553.945 921.02-696.732C1127.42 249.34 1371.42-118.642 1515.43-309.024"/>
  <path stroke="#AE8E88" stroke-miterlimit="10" stroke-width="1.113" d="M-470.457 1101.68c2.642-26.25 217.162-586.132 896.57-723.069C1105.52 241.673 1381.6-70.153 1538.71-277.839"/>
  <path stroke="#fff" stroke-miterlimit="10" stroke-width="1.113" d="M-455.101 1114.51c2.863-28.44 205.523-618.336 872.102-749.408S1391.76-21.656 1561.96-246.656"/>
  <path stroke="#AE8E88" stroke-miterlimit="10" stroke-width="1.113" d="M-439.745 1127.34c3.086-30.63 193.893-650.528 847.654-775.743C1061.67 226.382 1401.94 26.837 1585.23-215.468"/>
  <path stroke="#fff" stroke-miterlimit="10" stroke-width="1.113" d="M-424.393 1140.17c3.308-32.83 182.263-682.727 823.197-802.094C1039.74 218.709 1412.1 75.313 1608.49-184.297"/>
  <path stroke="#AE8E88" stroke-miterlimit="10" stroke-width="1.113" d="M-409.037 1153c3.529-35.02 170.625-714.931 798.737-828.423 628.11-113.492 1032.56-200.757 1242.05-477.681"/>
  <path stroke="#fff" stroke-miterlimit="10" stroke-width="1.113" d="M-393.674 1165.83c3.751-37.2 158.983-747.108 774.279-854.76C995.901 203.418 1432.44 172.319 1655.01-121.919"/>
  <path stroke="#AE8E88" stroke-miterlimit="10" stroke-width="1.113" d="M-378.31 1178.65c3.972-39.39 147.345-779.312 749.829-881.097C974.004 195.768 1442.63 220.8 1678.28-90.736"/>
  <path stroke="#fff" stroke-miterlimit="10" stroke-width="1.113" d="M-362.956 1191.48c4.185-41.57 135.716-811.507 725.363-907.436C952.055 188.115 1452.78 269.288 1701.53-59.552"/>
  <path stroke="#AE8E88" stroke-miterlimit="10" stroke-width="1.113" d="M-347.601 1204.31c4.407-43.76 124.085-843.702 700.914-933.773C930.142 180.465 1462.95 317.787 1724.8-28.367"/>
  <path stroke="#fff" stroke-miterlimit="10" stroke-width="1.113" d="M-332.247 1217.14c4.628-45.95 112.447-875.907 676.457-960.122C908.219 172.804 1473.12 366.274 1748.06 2.816"/>
  <defs>
    <linearGradient id="a" x1="-697.771" x2="1704.44" y1="756.78" y2="-164.08" gradientUnits="userSpaceOnUse">
      <stop stop-color="#fff"/>
      <stop offset="1" stop-color="#FFE23A" stop-opacity=".8"/>
    </linearGradient>
    <linearGradient id="b" x1="-701.323" x2="1689.78" y1="766.793" y2="-188.013" gradientUnits="userSpaceOnUse">
      <stop stop-color="#AE8E88"/>
      <stop offset="1" stop-color="#FFE339" stop-opacity=".809"/>
    </linearGradient>
    <linearGradient id="c" x1="-704.443" x2="1674.3" y1="776.747" y2="-212.922" gradientUnits="userSpaceOnUse">
      <stop stop-color="#fff"/>
      <stop offset="1" stop-color="#FFE338" stop-opacity=".819"/>
    </linearGradient>
    <linearGradient id="d" x1="-707.053" x2="1658.42" y1="786.563" y2="-237.873" gradientUnits="userSpaceOnUse">
      <stop stop-color="#AE8E88"/>
      <stop offset="1" stop-color="#FFE436" stop-opacity=".829"/>
    </linearGradient>
    <linearGradient id="e" x1="-709.214" x2="1641.83" y1="796.211" y2="-262.297" gradientUnits="userSpaceOnUse">
      <stop stop-color="#fff"/>
      <stop offset="1" stop-color="#FEE435" stop-opacity=".838"/>
    </linearGradient>
    <linearGradient id="f" x1="-710.877" x2="1624.48" y1="805.651" y2="-286.793" gradientUnits="userSpaceOnUse">
      <stop stop-color="#AE8E88"/>
      <stop offset="1" stop-color="#FEE534" stop-opacity=".848"/>
    </linearGradient>
    <linearGradient id="g" x1="-712.062" x2="1606.89" y1="814.906" y2="-311.005" gradientUnits="userSpaceOnUse">
      <stop stop-color="#fff"/>
      <stop offset="1" stop-color="#FEE533" stop-opacity=".857"/>
    </linearGradient>
    <linearGradient id="h" x1="-712.782" x2="1588.32" y1="823.905" y2="-335.076" gradientUnits="userSpaceOnUse">
      <stop stop-color="#AE8E88"/>
      <stop offset="1" stop-color="#FEE632" stop-opacity=".867"/>
    </linearGradient>
    <linearGradient id="i" x1="-713.028" x2="1569.38" y1="832.662" y2="-359.046" gradientUnits="userSpaceOnUse">
      <stop stop-color="#fff"/>
      <stop offset="1" stop-color="#FEE730" stop-opacity=".876"/>
    </linearGradient>
    <linearGradient id="j" x1="-711.467" x2="1551.16" y1="843.711" y2="-379.789" gradientUnits="userSpaceOnUse">
      <stop stop-color="#AE8E88"/>
      <stop offset="1" stop-color="#FEE72F" stop-opacity=".886"/>
    </linearGradient>
    <linearGradient id="k" x1="-700.479" x2="1541.2" y1="870.318" y2="-384.598" gradientUnits="userSpaceOnUse">
      <stop stop-color="#fff"/>
      <stop offset="1" stop-color="#FEE82E" stop-opacity=".895"/>
    </linearGradient>
    <linearGradient id="l" x1="-688.557" x2="1531.55" y1="896.282" y2="-389.349" gradientUnits="userSpaceOnUse">
      <stop stop-color="#AE8E88"/>
      <stop offset="1" stop-color="#FDE82D" stop-opacity=".905"/>
    </linearGradient>
    <linearGradient id="m" x1="-675.734" x2="1521.48" y1="921.513" y2="-394.207" gradientUnits="userSpaceOnUse">
      <stop stop-color="#fff"/>
      <stop offset="1" stop-color="#FDE92C" stop-opacity=".914"/>
    </linearGradient>
    <linearGradient id="n" x1="-662.039" x2="1511.72" y1="946.026" y2="-398.998" gradientUnits="userSpaceOnUse">
      <stop stop-color="#AE8E88"/>
      <stop offset="1" stop-color="#FDE92B" stop-opacity=".924"/>
    </linearGradient>
    <linearGradient id="o" x1="-647.504" x2="1501.54" y1="969.734" y2="-403.887" gradientUnits="userSpaceOnUse">
      <stop stop-color="#fff"/>
      <stop offset="1" stop-color="#FDEA29" stop-opacity=".933"/>
    </linearGradient>
    <linearGradient id="p" x1="-632.147" x2="1491.53" y1="992.643" y2="-408.931" gradientUnits="userSpaceOnUse">
      <stop stop-color="#AE8E88"/>
      <stop offset="1" stop-color="#FDEB28" stop-opacity=".943"/>
    </linearGradient>
    <linearGradient id="q" x1="-616.052" x2="1481.4" y1="1014.72" y2="-413.595" gradientUnits="userSpaceOnUse">
      <stop stop-color="#AE8E88"/>
      <stop offset="1" stop-color="#FDEB27" stop-opacity=".952"/>
    </linearGradient>
    <linearGradient id="r" x1="-599.207" x2="1471.07" y1="1035.91" y2="-418.491" gradientUnits="userSpaceOnUse">
      <stop stop-color="#fff"/>
      <stop offset="1" stop-color="#FDEC26" stop-opacity=".962"/>
    </linearGradient>
    <linearGradient id="s" x1="-581.667" x2="1461.07" y1="1056.24" y2="-423.287" gradientUnits="userSpaceOnUse">
      <stop stop-color="#AE8E88"/>
      <stop offset="1" stop-color="#FCEC25" stop-opacity=".971"/>
    </linearGradient>
    <linearGradient id="t" x1="-563.474" x2="1450.65" y1="1075.62" y2="-428.161" gradientUnits="userSpaceOnUse">
      <stop stop-color="#fff"/>
      <stop offset="1" stop-color="#FCED23" stop-opacity=".981"/>
    </linearGradient>
    <linearGradient id="u" x1="-544.659" x2="1440.57" y1="1094.12" y2="-432.918" gradientUnits="userSpaceOnUse">
      <stop stop-color="#AE8E88"/>
      <stop offset="1" stop-color="#FCED22" stop-opacity=".991"/>
    </linearGradient>
  </defs>
</svg>
